<svg xmlns="http://www.w3.org/2000/svg" viewBox="0 0 512 512" style="enable-background:new 0 0 512 512" xml:space="preserve"><path style="fill:#faebc8" d="M131.741 462.556 15.009 501.467c-2.767.922-5.399-1.71-4.477-4.477l38.91-116.732a35.402 35.402 0 0 1 8.548-13.832L405.78 18.637c13.82-13.82 36.226-13.82 50.046 0l37.534 37.534c13.82 13.82 13.82 36.226 0 50.046l-347.787 347.79a35.37 35.37 0 0 1-13.832 8.549z"/><path style="fill:#f5dcb4" d="M455.827 18.638c-13.82-13.82-36.226-13.82-50.046 0L57.992 366.427a35.379 35.379 0 0 0-8.548 13.832L10.532 496.991a3.5 3.5 0 0 0 .855 3.622L474.594 37.406l-18.767-18.768z"/><path transform="rotate(45.001 406.636 105.37)" style="fill:#afb9d2" d="M344.705 80.037h123.857v50.674H344.705z"/><path style="fill:#959cb5" d="m388.715 123.285 35.833-35.834-43.79-43.789-2.875 2.874-32.959 32.957z"/><path transform="rotate(45.001 247.697 264.295)" style="fill:#ffdc64" d="M185.765 58.435h123.857v411.724H185.765z"/><path style="fill:#5b5d6e" d="M28.2 443.988 10.533 496.99c-.922 2.766 1.71 5.399 4.477 4.477L68.011 483.8 28.2 443.988z"/><path style="fill:#464655" d="M28.2 443.988 10.533 496.99a3.5 3.5 0 0 0 .855 3.622l36.718-36.718L28.2 443.988z"/><path transform="rotate(-45.001 225.8 242.403)" style="fill:#ffc850" d="M19.94 211.435h411.724v61.928H19.94z"/><path style="fill:#ff6991" d="m380.312 44.105 87.581 87.581 25.467-25.467c13.82-13.82 13.82-36.226 0-50.046l-37.534-37.534c-13.82-13.82-36.226-13.82-50.046 0l-25.468 25.466z"/><path style="fill:#d23c69" d="m474.595 37.405-18.768-18.767c-13.82-13.82-36.226-13.82-50.046 0l-25.468 25.467 43.79 43.792 50.492-50.492z"/><path d="m499.226 50.308-37.534-37.534c-17.032-17.032-44.745-17.03-61.775 0L52.126 360.562a43.91 43.91 0 0 0-10.552 17.074L.426 501.082a8.295 8.295 0 0 0 10.492 10.492l123.445-41.148a43.93 43.93 0 0 0 17.074-10.552l347.789-347.789c17.032-17.033 17.032-44.746 0-61.777zm-62.167 100.483L361.208 74.94l19.55-19.55 75.851 75.851-19.55 19.55zM33.814 453.374l24.811 24.811-37.217 12.406 12.406-37.217zm42.406 18.947L39.679 435.78l17.632-52.897a27.041 27.041 0 0 1 1.845-4.26l74.221 74.221a27.001 27.001 0 0 1-4.26 1.845L76.22 472.321zm69.701-30.392-75.852-75.852L349.478 86.669l75.851 75.851-279.408 279.409zm341.576-341.575-19.159 19.158-75.851-75.851 19.158-19.158c5.282-5.282 12.22-7.922 19.158-7.922 6.938 0 13.877 2.641 19.158 7.922l37.534 37.534c10.565 10.564 10.565 27.753.002 38.317z"/><path d="M372.463 139.536a8.293 8.293 0 0 0-11.729 0l-13.271 13.271a8.293 8.293 0 0 0 0 11.729 8.27 8.27 0 0 0 5.864 2.43 8.261 8.261 0 0 0 5.864-2.43l13.271-13.27a8.294 8.294 0 0 0 .001-11.73zM320.921 179.348 121.864 378.405a8.293 8.293 0 0 0 0 11.729 8.27 8.27 0 0 0 5.864 2.43c2.122 0 4.245-.81 5.864-2.43L332.65 191.077a8.293 8.293 0 1 0-11.729-11.729z"/></svg>