<svg xmlns="http://www.w3.org/2000/svg" viewBox="0 0 124 124"><defs><style>.cls-2,.cls-4{fill:none}.cls-2{stroke:#333;stroke-linecap:round;stroke-linejoin:round}.cls-2,.cls-4{stroke-width:2px}.cls-3{fill:#333}.cls-4{stroke:#fff;stroke-miterlimit:10}.cls-5{fill:#fff}</style></defs><g id="Layer_2" data-name="Layer 2"><g id="General_-_Table" data-name="General - Table"><g id="General_-_Table-2" data-name="General - Table"><path d="M31.14 122H110a12 12 0 0 0 12-12V14a12 12 0 0 0-12-12H14A12 12 0 0 0 2 14v96a12 12 0 0 0 3.52 8.47" style="stroke-width:4px;stroke:#333;stroke-linecap:round;stroke-linejoin:round;fill:none"/><path class="cls-2" d="M61 12v100M90 12v100M12 62h100M12 89h100"/><path class="cls-3" d="M14 2h96a12 12 0 0 1 12 12v20H2V14A12 12 0 0 1 14 2z"/><circle class="cls-3" cx="24" cy="122" r="2"/><path class="cls-4" d="M90 10.93V34"/><path class="cls-5" d="M89 11a1 1 0 1 1 1 1 1 1 0 0 1-1-1z"/><path class="cls-4" d="M61 10.93V34"/><path class="cls-5" d="M60 11a1 1 0 1 1 1 1 1 1 0 0 1-1-1z"/></g></g></g></svg>